<svg xmlns="http://www.w3.org/2000/svg" xmlns:xlink="http://www.w3.org/1999/xlink" width="747.48" height="227.91" viewBox="0 0 747.48 227.91">
  <defs>
    <linearGradient id="linear-gradient" x1="0.916" y1="0.688" x2="0.154" y2="-0.103" gradientUnits="objectBoundingBox">
      <stop offset="0.23" stop-color="gray"/>
      <stop offset="0.35" stop-color="#7b7b7b"/>
      <stop offset="0.48" stop-color="#6e6e6e"/>
      <stop offset="0.63" stop-color="#585858"/>
      <stop offset="0.77" stop-color="#393939"/>
      <stop offset="0.92" stop-color="#111"/>
      <stop offset="0.98"/>
    </linearGradient>
  </defs>
  <g id="Group_1" data-name="Group 1" transform="translate(-767 559)">
    <g id="mati_tech2-1-02" data-name="mati tech2-1-02" transform="translate(545 -820.55)">
      <path id="Path_1" data-name="Path 1" d="M619.37,434.62c-4.3,0-7.63-1.44-9.89-4.3l-46.19-60.51V432.5H542.72V342a7.82,7.82,0,0,1,3.57-7.08,15.61,15.61,0,0,1,8.56-2.21,15.189,15.189,0,0,1,6.31,1.11,11.741,11.741,0,0,1,4.3,3.63l54.2,71.93,54.61-71.93a12.55,12.55,0,0,1,4.07-3.62,13.3,13.3,0,0,1,6-1.12,15.61,15.61,0,0,1,8.56,2.21,7.82,7.82,0,0,1,3.56,7.08v90.5H675.59V369.8l-46.32,60.52C627,433.18,623.67,434.62,619.37,434.62Z" fill="#d1d1d1"/>
      <path id="Path_2" data-name="Path 2" d="M684.32,333.16a15.11,15.11,0,0,1,8.29,2.13,7.34,7.34,0,0,1,3.33,6.66V432H676.09V368.33L628.87,430q-3.25,4.11-9.5,4.11t-9.5-4.11l-47.08-61.68V432H543.22V342a7.32,7.32,0,0,1,3.34-6.66,15.09,15.09,0,0,1,8.29-2.13,14.54,14.54,0,0,1,6.1,1.07,11.15,11.15,0,0,1,4.11,3.47l54.59,72.46,55-72.46a11.841,11.841,0,0,1,3.9-3.47,12.69,12.69,0,0,1,5.75-1.07m0-1a13.54,13.54,0,0,0-6.21,1.18,13,13,0,0,0-4.23,3.75l-54.2,71.36-53.8-71.4a12.279,12.279,0,0,0-4.49-3.78,15.54,15.54,0,0,0-6.52-1.16,16.11,16.11,0,0,0-8.83,2.29,8.29,8.29,0,0,0-3.8,7.5V433h21.57V371.29l45.29,59.33c2.37,3,5.83,4.5,10.29,4.5s7.92-1.51,10.29-4.49l45.43-59.35V433h21.85V342c0-3.37-1.27-5.9-3.79-7.5a16.15,16.15,0,0,0-8.83-2.29Z" fill="#fff"/>
      <path id="Path_3" data-name="Path 3" d="M824.42,432.5l-14-22.27H744L730.25,432.5h-26l56.64-90.1a25.44,25.44,0,0,1,6.22-6.94c2.44-1.86,6-2.8,10.51-2.8s7.92.94,10.37,2.8a25.751,25.751,0,0,1,6.22,6.94l56.35,90.1ZM799.7,392.64,777.19,356l-22.5,36.68Z" fill="#d1d1d1"/>
      <path id="Path_4" data-name="Path 4" d="M777.62,333.16q6.52,0,10.07,2.7a24.882,24.882,0,0,1,6.09,6.8L849.65,432H824.7l-14-22.27H743.73L730,432H705.16l56.15-89.34a24.911,24.911,0,0,1,6.1-6.8q3.54-2.7,10.21-2.7m-23.82,60h46.79L777.19,355,753.8,393.14m23.82-61c-4.65,0-8.28,1-10.82,2.9a26.259,26.259,0,0,0-6.34,7.07l-56.15,89.33-1,1.54h27.18l.29-.48,13.47-21.79h65.82l13.74,21.8.3.47h27.31l-1-1.53-55.87-89.34a25.929,25.929,0,0,0-6.34-7.07c-2.53-1.92-6.12-2.9-10.67-2.9Zm-22,60,21.61-35.23,21.61,35.23Z" fill="#fff"/>
      <path id="Path_5" data-name="Path 5" d="M872.83,432.5V354.36H832.28V334.79h103.8v19.57H895.53V432.5Z" fill="#d1d1d1"/>
      <path id="Path_6" data-name="Path 6" d="M935.58,335.29v18.57H895V432H873.3V353.86H832.78V335.29h102.8m1-1H831.78v20.57h40.55V433H896V354.86h40.55V334.29Z" fill="#fff"/>
      <rect id="Rectangle_1" data-name="Rectangle 1" width="22.55" height="97.71" transform="translate(946.43 334.79)" fill="#d1d1d1"/>
      <path id="Path_7" data-name="Path 7" d="M968.48,335.29V432H946.93V335.29h21.55m1-1H945.93V433h23.55Z" fill="#fff"/>
      <path id="Path_8" data-name="Path 8" d="M754.59,317.82V292.58h-13.1v-6H774.7v6H761.6v25.24Z" fill="#fff"/>
      <path id="Path_9" data-name="Path 9" d="M814.75,317.82a24.19,24.19,0,0,1-5.73-.57,8.289,8.289,0,0,1-3.67-1.83,6.91,6.91,0,0,1-1.94-3.3,18.469,18.469,0,0,1-.58-5v-9.8a18.558,18.558,0,0,1,.58-5,6.93,6.93,0,0,1,1.94-3.32,8.29,8.29,0,0,1,3.67-1.83,24.189,24.189,0,0,1,5.73-.57h7.69v5.91h-7.69a10,10,0,0,0-2.48.25,3.379,3.379,0,0,0-1.53.8A2.8,2.8,0,0,0,810,295a10.6,10.6,0,0,0-.21,2.3v2.1h26.62V305H809.75v2.2a10.709,10.709,0,0,0,.21,2.33,2.65,2.65,0,0,0,2.29,2.22,12.273,12.273,0,0,0,2.5.21h21.8v5.91Z" fill="#fff"/>
      <path id="Path_10" data-name="Path 10" d="M877.46,317.82a24.1,24.1,0,0,1-5.72-.57,8.29,8.29,0,0,1-3.67-1.83,7,7,0,0,1-2-3.3,18.906,18.906,0,0,1-.57-5v-9.8a19,19,0,0,1,.57-5,7,7,0,0,1,2-3.32,8.29,8.29,0,0,1,3.67-1.83,24.1,24.1,0,0,1,5.72-.57h21.67v6H877.78a11.261,11.261,0,0,0-2.63.25,3.38,3.38,0,0,0-1.63.85,3.191,3.191,0,0,0-.82,1.58,10.9,10.9,0,0,0-.23,2.4v9.17a10.83,10.83,0,0,0,.23,2.42,3.25,3.25,0,0,0,.82,1.56,3.311,3.311,0,0,0,1.65.83,13.161,13.161,0,0,0,2.66.22h21.3v6Z" fill="#fff"/>
      <path id="Path_11" data-name="Path 11" d="M958.23,317.82V305.36h-22.9v12.46h-7V286.58h7v12.73h22.9V286.58h6.92v31.24Z" fill="#fff"/>
      <path id="Path_12" data-name="Path 12" d="M320.81,338l61.89-61.89a47.3,47.3,0,0,1,27-13.48c.79-.06,7.46-.57,8-.57A47.6,47.6,0,0,1,463,295l.49,1.52-1.27-1a43.32,43.32,0,0,0-25.93-8.66,42.88,42.88,0,0,0-24.24,7.46,40.392,40.392,0,0,0-3.81,2.93h0l-.17.11-.12.11h0a15.36,15.36,0,0,0-2.12,1.76L367.06,338l62,62.15-.05.05,36.64,36.63.83,47.11Z" fill="#d1d1d1"/>
      <path id="Path_13" data-name="Path 13" d="M417.69,262.57a47.26,47.26,0,0,1,44.86,32.55,43.62,43.62,0,0,0-50.75-1.21,42.227,42.227,0,0,0-4,3.09h0a15.271,15.271,0,0,0-2.29,1.88L366.36,338l62,62.15v.05l36.84,36.84.81,45.67-121.84-122L321.52,338l61.53-61.53a47.08,47.08,0,0,1,26.68-13.34s7.4-.57,8-.57m0-1c-.57,0-6.8.47-8,.57h-.06a47.77,47.77,0,0,0-27.25,13.62L320.81,337.3l-.71.71.71.7,22.64,22.68,121.84,122,1.75,1.76v-2.48l-.81-45.66v-.41l-.28-.28-36.14-36.14.05-.05-.71-.7L367.77,338l38.41-38.41A14.356,14.356,0,0,1,408.1,298h.07l.24-.21.36-.24v-.07a41.937,41.937,0,0,1,3.59-2.75,42.42,42.42,0,0,1,24-7.37A42.85,42.85,0,0,1,462,295.92l2.54,1.91-1-3a48.1,48.1,0,0,0-45.81-33.24Z" fill="#fff"/>
      <path id="Path_14" data-name="Path 14" d="M462.4,298a41.24,41.24,0,0,0-47-3.58l.54-.06,1.66-.1h.1a15.48,15.48,0,0,1,15.46,15.46v91.91l32,32-.26-14.2V309.75a47.359,47.359,0,0,0-1.211-10.644v0C463.25,298.74,462.83,298.38,462.4,298Z" fill="url(#linear-gradient)"/>
      <path id="Path_15" data-name="Path 15" d="M222.5,309.75a47.74,47.74,0,0,1,47.69-47.68h1.58l.15-.05,1.87.15h3.66l.81.43a47.86,47.86,0,0,1,26.92,13.47l61.65,61.66L222.5,488.21Zm47.69-15a15,15,0,0,0-15,15v97.1L321,338.25l-39-39a14.79,14.79,0,0,0-8-4.15l-2.08-.21-1.65-.1-.06-.5Z" fill="#fff"/>
      <path id="Path_16" data-name="Path 16" d="M272,262.56l1.77.14h3.58l.78.41a47,47,0,0,1,26.72,13.35l61.31,61.31-22,22.9L223,487V309.75a47.24,47.24,0,0,1,47.19-47.18h1.78M254.72,408.1l67-69.85L282.4,298.9a15.52,15.52,0,0,0-8.34-4.3l-2.11-.21-1.67-.1h-.09a15.49,15.49,0,0,0-15.47,15.46V408.1m17.15-146.55h-1.68A48.24,48.24,0,0,0,222,309.75V489.46l1.72-1.8L344.88,361.38l22-22.9.67-.71-.69-.69-61.31-61.31a48.45,48.45,0,0,0-27.12-13.61l-.62-.33-.22-.11h-3.81l-1.74-.14ZM255.72,405.61V309.75a14.48,14.48,0,0,1,14.47-14.46h.06l1.63.1,2.05.21a14.28,14.28,0,0,1,7.76,4l38.65,38.65L255.72,405.6Z" fill="#fff"/>
    </g>
  </g>
</svg>
